<?xml version="1.0" standalone="no"?>
<!DOCTYPE svg PUBLIC "-//W3C//DTD SVG 1.1//EN" "http://www.w3.org/Graphics/SVG/1.1/DTD/svg11.dtd" >
<!--
2013-9-30: Created.
-->
<svg>
<metadata>
Created by iconfont
</metadata>
<defs>

<font id="iconfont" horiz-adv-x="1024" >
  <font-face
    font-family="iconfont"
    font-weight="500"
    font-stretch="normal"
    units-per-em="1024"
    ascent="896"
    descent="-128"
  />
    <missing-glyph />
    
    <glyph glyph-name="cubelifangti" unicode="&#59132;" d="M1024 128.3072c0-7.168-2.8672-12.0832-8.4992-14.9504L571.2896-125.8496 569.1392-125.8496C567.7056-127.2832 565.5552-128 562.688-128c-2.8672 0-5.0176 0.7168-6.4512 2.1504L554.1888-125.8496 109.9776 113.3568C104.2432 116.224 101.376 121.1392 101.376 128.3072L101.376 640.8192 101.376 642.9696c0 1.3312 0.7168 2.8672 2.1504 4.3008L103.5264 649.4208l4.3008 4.3008 2.1504 2.1504L554.1888 894.976c5.7344 1.3312 11.3664 1.3312 17.1008 0l444.2112-239.2064 2.1504-2.1504 4.3008-4.3008 0-2.1504L1024 642.9696l0-2.1504L1024 128.3072zM135.5776 138.9568l410.0096-222.1056 0 474.112L135.5776 613.0688 135.5776 138.9568zM154.8288 640.8192 562.688 420.864l407.8592 219.9552L562.688 860.7744 154.8288 640.8192zM989.7984 138.9568l0 474.112L579.7888 390.9632l0-474.112L989.7984 138.9568z"  horiz-adv-x="1024" />

    
    <glyph glyph-name="zhuye" unicode="&#58973;" d="M1006.1 483.3l-187.5 141c0 0.2 0.1 0.3 0.1 0.4V774.6c0 2.3-1.9 4.2-4.2 4.2h-92.4c-2.3 0-4.2-1.9-4.2-4.2V700L535.3 837.2c-7.3 5.5-16 8.4-25.1 8.4-9.2 0-17.9-2.9-25.2-8.5L16.7 483.5C7.8 476.8 2.1 467 0.5 455.9c-2.1-14.8 3.8-29.5 16.2-39.3 4.3-3.3 9.2-5.7 14.5-7 13-3.2 25.8-0.6 36 7.1L505 747.4c3.1 2.3 7.4 2.3 10.4 0l441.8-332c7.3-5.5 16-8.4 25.1-8.4 13.7 0 26.3 6.5 34.2 17.7 13.3 18.8 7.9 44.9-10.4 58.6zM906.7 396.6l-193.2 140-196.7 142.5c-3.4 2.5-8.1 2.5-11.5 0L308.7 536.6l-193.2-140c-5.6-4.1-9-10.6-9-17.6v-392.1c0-35.5 29-64.5 64.5-64.5h246.7V179.8c0 30 24.6 54.6 54.6 54.6h77.5c30 0 54.6-24.6 54.6-54.6v-257.4h246.7c35.5 0 64.5 29 64.5 64.5V379c0.1 6.9-3.3 13.5-8.9 17.6z"  horiz-adv-x="1024" />

    
    <glyph glyph-name="fengxian" unicode="&#58922;" d="M512 384m-447.6 0a447.6 447.6 0 1 1 895.2 0 447.6 447.6 0 1 1-895.2 0ZM671.1 438.1H542.7l-1.5 264.1-188.3-372.3h128.4l1.5-264.1 188.3 372.3z"  horiz-adv-x="1024" />

    
    <glyph glyph-name="rili" unicode="&#58920;" d="M410.7 767.5h202.8v-51.2H410.7zM897.4-71.1H126.8C56.9-71.1 0.1-13.7 0.1 56.9V639.5c0 70.6 56.9 128 126.7 128h148.7v-51.2H126.8c-41.9 0-76-34.5-76-76.8v-582.6c0-42.4 34.1-76.8 76-76.8h770.5c41.9 0 76 34.5 76 76.8V639.5c0 42.4-34.1 76.8-76 76.8H748.7v51.2h148.7c69.9 0 126.7-57.4 126.7-128v-582.6c0-70.6-56.8-128-126.7-128zM319.2 838.9h50.7v-184.4h-50.7zM656.4 838.9h50.7v-184.4h-50.7zM750.4 373.8H872v-51.2H750.4zM152.2 373.8h121.6v-51.2H152.2zM351.6 373.8h121.6v-51.2H351.6zM551 373.8h121.6v-51.2H551zM750.4 202.3H872v-51.2H750.4zM152.2 202.3h121.6v-51.2H152.2zM351.6 202.3h121.6v-51.2H351.6zM551 202.3h121.6v-51.2H551zM50.8 567.9h922.6v-51.2H50.8z"  horiz-adv-x="1024" />

    
    <glyph glyph-name="kuaisufan-copy-copy-copy" unicode="&#58880;" d="M512 881.1026963c-273.40648297 0-497.1026963-223.69621333-497.1026963-497.1026963s223.69621333-497.1026963 497.1026963-497.1026963 497.1026963 223.69621333 497.1026963 497.1026963-223.69621333 497.1026963-497.1026963 497.1026963z m165.70089876-472.24756148l-256.83639307-331.40179754c-8.28504494-8.28504494-16.57008987 0-16.57008988 8.28504494l49.71026962 265.12143803h-99.42053926c-8.28504494 0-8.28504494 8.28504494-8.28504493 8.28504493l256.83639307 331.40179754c8.28504494 8.28504494 16.57008987 0 16.57008988-8.28504494l-41.42522469-265.12143803h91.13549433c8.28504494 0 8.28504494-8.28504494 8.28504493-8.28504493z"  horiz-adv-x="1024" />

    
    <glyph glyph-name="quyu" unicode="&#58885;" d="M262.6 285.4l208.6-212.2c10.9-11.1 25.4-17.1 40.8-17.1s29.9 6.1 40.8 17.1l208.6 212.2c33.5 34 59.4 73.9 77 118.3 17 42.9 25.6 88.2 25.6 134.7s-8.6 91.8-25.6 134.7c-17.6 44.5-43.6 84.3-77 118.3-33.5 34.1-72.7 60.5-116.5 78.5C602.6 887.2 557.9 896 512 896c-45.9 0-90.6-8.8-132.9-26.2-43.8-18-83-44.4-116.5-78.5-33.5-34-59.4-73.9-77-118.3-17-42.9-25.6-88.2-25.6-134.7s8.6-91.8 25.6-134.7c17.7-44.4 43.6-84.2 77-118.2z m42.8 463.9C360.4 805.2 433.7 836 512 836c78.3 0 151.6-30.8 206.6-86.7 55.1-56.1 85.4-131 85.4-210.9s-30.3-154.9-85.4-210.9L522.7 128.1c-5.9-6-15.5-6-21.4 0L305.4 327.4c-55.1 56.1-85.4 131-85.4 210.9s30.3 154.9 85.4 211zM512 370c88.2 0 160 71.8 160 160s-71.8 160-160 160-160-71.8-160-160 71.8-160 160-160z m0 260c55.1 0 100-44.9 100-100s-44.9-100-100-100-100 44.9-100 100 44.9 100 100 100zM914.9 106.8c-23.7 17.5-56.9 32.9-98.4 45.8-23.5 7.3-49.3 13.7-76.7 19.1-18.5 3.6-35.8-10.5-35.8-29.4 0-14.3 10.1-26.7 24.2-29.4 25.3-4.9 48.9-10.8 70.5-17.5C878.8 70.3 900 43 900 32s-21.2-38.3-101.3-63.3C722.5-55 620.7-68 512-68s-210.5 13-286.7 36.7C145.2-6.3 124 21 124 32s21.2 38.3 101.3 63.3c21.6 6.7 45.2 12.6 70.5 17.5 14 2.7 24.2 15.1 24.2 29.4 0 18.9-17.3 33.1-35.8 29.4-27.4-5.4-53.2-11.7-76.7-19.1-41.6-12.9-74.7-28.3-98.4-45.8C88.5 91.7 64 66.4 64 32s24.5-59.7 45.1-74.8c23.7-17.5 56.9-32.9 98.4-45.8C289.3-114 397.4-128 512-128s222.7 14 304.5 39.4c41.6 12.9 74.7 28.3 98.4 45.8 20.6 15.1 45.1 40.4 45.1 74.8s-24.5 59.7-45.1 74.8z"  horiz-adv-x="1024" />

    
    <glyph glyph-name="fengxian1" unicode="&#58882;" d="M86.243556 795.306667c0 11.889778 8.817778 23.324444 20.024888 25.770666 0 0 349.866667 74.467556 405.504 74.467556 55.694222 0 406.755556-74.581333 406.755556-74.581333a26.624 26.624 0 0 0 19.569778-25.6v-388.892445c0-142.848-89.6-324.494222-201.443556-403.854222 0 0-165.888-130.275556-222.435555-130.275556-56.433778 0-226.076444 131.470222-226.076445 131.470223C176.64 83.342222 86.243556 263.566222 86.243556 406.471111V795.306667z m395.832888-177.436445l-90.453333-249.628444c-3.185778-8.817778 1.365333-16.384 10.467556-16.384h86.812444c8.874667 0 14.791111-7.793778 12.970667-17.464889l-28.16-145.635556c-7.395556-38.229333 3.811556-43.463111 24.917333-11.832889l173.112889 259.185778c5.347556 7.850667 2.161778 14.392889-6.940444 14.620445l-108.259556 2.958222c-9.272889 0.227556-13.539556 7.623111-9.898667 16.440889L607.402667 618.382222c3.527111 8.704-0.796444 15.928889-9.898667 15.928889H504.490667a26.112 26.112 0 0 1-22.414223-16.384z"  horiz-adv-x="1024" />

    
    <glyph glyph-name="fengxianfenxi" unicode="&#58949;" d="M265 381.5c0-136.6 110.8-247.4 247.4-247.4s247.4 110.8 247.4 247.4c0 52-16.1 100.2-43.4 140l-51.1-34.9c21.2-30.6 32.6-67 32.6-105.1 0-49.6-19.3-96.2-54.3-131.2-35-35-81.6-54.3-131.2-54.3s-96.2 19.3-131.2 54.3c-35 35-54.3 81.6-54.3 131.2 0 49.6 19.3 96.2 54.3 131.2 31.4 31.4 72.1 50.2 115.9 53.8l-4.9 61.7C365 617.9 265 511.4 265 381.5zM480.9 381.2c0-17.1 13.8-30.9 30.9-30.9 17.1 0 30.9 13.8 30.9 30.9 0 7.4-2.6 14.2-7 19.5l311.7 252.5 0.4 0.4c0.1 0 0.1 0.1 0.2 0.1-79 98-200.1 160.7-335.8 160.7h-0.3v-402.3c-17.1 0.1-31-13.8-31-30.9zM868.9 626l-0.4-0.4c-0.1 0-0.1-0.1-0.2-0.1L818 590.9c13.8-20.3 25.7-41.9 35.3-64.7 19.3-45.6 29.1-94.1 29.1-144.1s-9.8-98.5-29.1-144.1c-18.7-44.1-45.3-83.7-79.4-117.7-34-34-73.7-60.7-117.7-79.4-45.6-19.3-94.1-29.1-144.1-29.1s-98.5 9.8-144.1 29.1c-44.1 18.7-83.7 45.3-117.7 79.4-34 34-60.7 73.7-79.4 117.7-19.3 45.6-29.1 94.1-29.1 144.1s9.8 98.5 29.1 144.1c18.7 44.1 45.3 83.7 79.4 117.7 34 34 73.7 60.7 117.7 79.4 36.5 15.5 74.9 24.8 114.5 27.9l-4.8 60.6-0.1 1.1C255.1 795.4 80 609.3 80 382.2 80 143.6 273.4-50 512.2-50c238.7 0 432.2 193.5 432.2 432.2-0.1 90.5-27.9 174.4-75.5 243.8z"  horiz-adv-x="1024" />

    
    <glyph glyph-name="jichuxinxi" unicode="&#59048;" d="M798.208-22.528H231.936c-48.128 0-87.04 38.912-87.04 87.04V703.488c0 48.128 38.912 87.04 87.04 87.04h566.272c48.128 0 87.04-38.912 87.04-87.04v-638.976c0-47.616-38.912-87.04-87.04-87.04zM231.936 739.328c-19.968 0-35.84-15.872-35.84-35.84v-638.976c0-19.968 15.872-35.84 35.84-35.84h566.272c19.968 0 35.84 15.872 35.84 35.84V703.488c0 19.968-15.872 35.84-35.84 35.84H231.936zM293.888 552.96h442.88v-51.2H293.888zM373.248 266.24h363.008v-51.2H373.248zM293.888 266.24h52.736v-51.2H293.888zM373.248 409.6h363.008v-51.2H373.248zM293.888 409.6h52.736v-51.2H293.888z"  horiz-adv-x="1024" />

    
    <glyph glyph-name="weixiandengji-copy-copy" unicode="&#58881;" d="M596.35823203 663.52786704l292.45698787-506.54382365a51.9844104 51.9844104 0 0 0-45.00696959-78.15175279H258.85071405A51.9844104 51.9844104 0 0 0 213.84434114 156.98404337L506.34429283 663.5272702899999a51.9844104 51.9844104 0 0 0 90.0139392 0zM515.76470316 520.0908267899999l13.73707899-254.07897492h46.7076201l13.65055469 254.0354144H515.72114265z m36.76388678-289.01152963a40.64554695 40.64554695 0 0 1-30.22264791-11.86278314 37.81112945 37.81112945 0 0 1-13.08307447-30.22205119 39.51177997 39.51177997 0 0 1 13.08307447-30.22264792 41.12590613 41.12590613 0 0 1 30.22264791-12.42966663 47.05670099 47.05670099 0 0 1 31.40057216 11.86278312 41.51795082 41.51795082 0 0 1 12.4290699 30.83309195 39.24982012 39.24982012 0 0 1-12.42966661 30.22264792 42.43391523 42.43391523 0 0 1-31.39937873 11.86218642z"  horiz-adv-x="1156" />

    
    <glyph glyph-name="shandian" unicode="&#58887;" d="M511.927917-128C230.525085-128 2.404174 100.400762 2.404174 382.147048 2.404174 663.884853 230.525085 892.285615 511.927917 892.285615 793.33499 892.289855 1021.455901 663.889093 1021.455901 382.142807c0-281.742046-228.120911-510.142807-509.527984-510.142807z m-39.18337 211.741151a13.967106 13.967106 0 0 1 12.885863 7.844307l200.674319 352.942906c0.424017 1.840232 0.424017 3.756787 0 5.601259 0 3.731346-1.484058 7.301565-4.117201 9.905027a13.517648 13.517648 0 0 1-9.875346 3.913673h-112.669681s56.334841 149.393756 70.696282 203.549151c1.840232 7.098037-6.258484 13.445565-14.361441 13.445565h-143.232795a16.197433 16.197433 0 0 1-13.623653-9.336844c-28.353988-73.575354-87.635743-239.403992-114.514153-326.424911a23.108903 23.108903 0 0 1 0-4.112961 13.907743 13.907743 0 0 1 4.375851-9.794783 13.509168 13.509168 0 0 1 9.98135-3.646542h126.666468s-23.935735-172.926675-27.247304-230.813416a13.907743 13.907743 0 0 1 4.380091-9.803263 13.509168 13.509168 0 0 1 9.98135-3.646543v0.377375z"  horiz-adv-x="1152" />

    
    <glyph glyph-name="biaoqianguanli" unicode="&#59211;" d="M640 180.352V832H384v-896h256v244.352z m64-9.664V-64h256V640h-256v-391.104h256v-78.208h-256z m256 567.744h64V-128H0V580.928h320V896h384v-157.568h256z m-640-555.52H64V265.088h256V512H64v-576h256v246.848zM640 448v-64H384V448h256z"  horiz-adv-x="1024" />

    
    <glyph glyph-name="daohangshouqi" unicode="&#59212;" d="M0 896h1024v-78.72H0V896z m409.6-630.144H1024v-78.72H409.6v78.72z m0 315.072H1024v-78.784H409.6v78.72zM0-49.28h1024V-128H0v78.72zM0 384l273.024 196.928v-393.856L0 384z"  horiz-adv-x="1024" />

    
    <glyph glyph-name="daohangzhankai" unicode="&#59213;" d="M993.882353-97.882353H30.117647v74.089412h963.764706v-74.089412z m-385.505882 593.076706H30.117647v74.089412h578.258824v-74.089412z m0-296.538353H30.117647v74.149647h578.258824v-74.089412z m385.505882 593.076706H30.117647V865.882353h963.764706v-74.089412z m0-407.732706l-256.963765-185.344V569.344L993.882353 384z"  horiz-adv-x="1024" />

    
    <glyph glyph-name="fengxianxinhao" unicode="&#59214;" d="M783.296 714.496v-661.952h-60.16V714.496h60.16z m-481.472 0v-661.952h-60.16V714.496h60.16zM61.12 534.016v-300.928h-60.16V533.952h60.16z m962.88 0v-300.928h-60.16V533.952H1024zM542.592 894.976V-128h-60.16V895.04h60.16z"  horiz-adv-x="1024" />

    
    <glyph glyph-name="fengxianjingqingbiao" unicode="&#59215;" d="M755.072 266.24h240.768v-78.72h-240.768v-236.16h-60.16V344.96H394.048v-393.6h-60.16v236.16H93.056V266.24h240.704V502.4H93.12V581.12h240.704V817.28h60.16v-393.6h300.928V817.28h60.16v-236.16h240.768v-78.72h-240.768v-236.16zM1056 896v-1023.36H32.96V896H1056zM93.12 817.28v-865.92H995.84V817.28H93.12z"  horiz-adv-x="1088" />

    
    <glyph glyph-name="fengxianjiance" unicode="&#59216;" d="M712.96 172.928l-48.128 48.128 42.112 42.112 48.128-48.128c30.08 36.096 48.192 84.224 54.208 138.368h-60.16v60.16h60.16c-6.016 54.208-24.064 96.32-54.208 138.496l-48.128-48.192-42.112 42.112 48.128 48.192c-42.112 30.08-90.24 54.144-138.368 60.16v-60.16h-60.16v60.16c-54.208-6.016-96.32-30.08-138.496-60.16l54.208-54.208-42.112-42.112-54.208 54.208c-30.08-42.176-54.144-90.24-60.16-138.432h60.16v-60.16h-60.16c6.016-54.208 30.08-102.336 60.16-138.432l54.208 54.144 42.112-42.112-54.208-54.144c36.16-30.08 84.288-48.192 138.432-54.208v60.16h60.16v-60.16c54.208 0 102.336 24.064 138.432 54.208z m162.56 180.48c-12.096-156.416-138.496-282.816-300.928-300.864h-60.16c-156.544 12.032-282.88 138.432-300.928 300.864v60.16c12.032 156.544 138.368 282.88 300.864 300.928h60.16c156.48-12.032 282.88-138.368 300.928-300.864v-60.16z m78.144-276.8l-42.112 42.112c54.208 72.256 84.288 168.512 84.288 264.832 0 246.72-204.608 451.328-451.392 451.328-246.72 0-451.328-204.608-451.328-451.328 0-246.784 204.608-451.392 451.328-451.392a457.088 457.088 0 0 1 270.848 90.24l42.112-42.048A518.4 518.4 0 0 0 544.448-128 511.104 511.104 0 0 0 32.96 383.552 511.104 511.104 0 0 0 544.448 895.04 511.104 511.104 0 0 0 1056 383.552c0-114.368-36.096-222.72-102.336-306.944zM544.448 353.408c-18.048 0-30.08 12.096-30.08 30.08 0 12.096 12.032 60.224 30.08 150.464 18.048-90.24 30.08-138.368 30.08-150.4 0-18.048-12.032-30.08-30.08-30.08z"  horiz-adv-x="1088" />

    
    <glyph glyph-name="fengxianqiyeqingdan" unicode="&#59217;" d="M708.005647-68.969412H1.264941v963.764706h706.740706v-385.505882h257.024v-578.258824h-257.024z m0 64.210824h192.752941V445.018353h-192.752941v-449.776941z m-64.210823 449.776941v385.505882h-578.258824v-835.282823h578.258824V445.018353z m-449.776942 192.752941V766.253176h64.210824v-128.481882H194.017882z m128.481883 0V766.253176h64.271059v-128.481882H322.499765z m-128.481883-192.752941V573.500235h64.210824v-128.481882H194.017882z m128.481883 0V573.500235h64.271059v-128.481882H322.499765z m-128.481883-192.752941V380.687059h64.210824v-128.481883H194.017882z m128.481883 0V380.687059h64.271059v-128.481883H322.499765z m-128.481883-192.752941v128.481882h64.210824v-128.481882H194.017882z m128.481883 0v128.481882h64.271059v-128.481882H322.499765z m128.481882 578.258823V766.253176h64.271059v-128.481882H450.981647z m0-192.752941V573.500235h64.271059v-128.481882H450.981647z m0-192.752941V380.687059h64.271059v-128.481883H450.981647z m0-192.752941v128.481882h64.271059v-128.481882H450.981647z m321.295059 256.963764V380.747294h64.210823v-64.271059h-64.210823z m0-128.481882v64.210823h64.210823v-64.210823h-64.210823z m0-128.481882v64.210823h64.210823v-64.210823h-64.210823z"  horiz-adv-x="1024" />

    
    <glyph glyph-name="fengxianxinhaoqingdan" unicode="&#59218;" d="M288.346353 637.771294v192.752941h64.271059v-192.752941h578.258823v192.752941H95.593412v-192.752941h192.752941z m0-64.271059h-192.752941v-578.258823h835.282823v578.258823h-578.258823v-578.258823H288.346353v578.258823zM31.382588 894.735059h963.764706v-963.764706h-963.764706v963.764706z"  horiz-adv-x="1024" />

    
    <glyph glyph-name="gongzuoliu" unicode="&#59219;" d="M682.688 30.08V108.8h227.52v-78.72H1024v-78.72h-113.792v-78.72h-227.52v78.72H0v78.72h682.688zM398.208 423.68V502.4h227.584v-78.72H1024v-78.72H625.792v-78.72H398.208V344.96H0V423.68h398.208zM113.792 817.28V896h227.52v-78.72H1024v-78.72H341.312v-78.72H113.792V738.56H0V817.28h113.792z m170.624 0H170.688v-78.72h113.728V817.28zM568.96 423.68H455.04v-78.72H568.96V423.68z m284.416-393.6h-113.728v-78.72h113.728v78.72z"  horiz-adv-x="1024" />

    
    <glyph glyph-name="guanji" unicode="&#59220;" d="M421.660444 889.969778v-60.245334c-204.8-42.097778-361.415111-222.833778-361.415111-439.751111 0-246.897778 204.8-451.697778 451.754667-451.697777 246.954667 0 451.754667 204.8 451.754667 451.697777 0 216.917333-156.615111 403.626667-361.415111 439.751111V890.026667C843.320889 847.758222 1024 636.928 1024 384c0-283.079111-228.920889-512-512-512s-512 228.920889-512 512C0 636.984889 180.679111 847.815111 421.660444 889.969778zM481.848889 896h60.188444v-240.924444H481.905778V896z"  horiz-adv-x="1024" />

    
    <glyph glyph-name="fengxianyujingbaogao" unicode="&#59221;" d="M435.2 356.992l-34.048 34.112-143.168-143.168-47.68 47.744L394.24 486.528 476.16 404.736l293.12 286.272 286.272-286.272-47.744-47.744-238.528 238.592-293.12-293.12-40.896 54.528z m-333.952-415.744h954.24v-68.16H33.088V895.488h68.16v-954.24z"  horiz-adv-x="1088" />

    
    <glyph glyph-name="shanchu" unicode="&#59222;" d="M131.657143 754.590476h760.685714v-877.714286H131.657143v877.714286z m58.514286-58.514286v-760.685714h643.657142V696.07619H190.171429zM365.714286 520.533333h58.514285v-409.6H365.714286V520.533333z m234.057143 0H658.285714v-409.6h-58.514285V520.533333zM73.142857 754.590476h877.714286v-58.514286H73.142857V754.590476zM365.714286 871.619048h292.571428v-58.514286H365.714286V871.619048z"  horiz-adv-x="1024" />

    
    <glyph glyph-name="jueceshu" unicode="&#59223;" d="M833.234824 145.227294h-107.038118v216.244706H993.882353v-216.244706h-107.098353v-216.244706h-53.549176v216.244706z m107.098352 288.286118h-53.549176V793.840941H83.727059v-792.69647h481.882353v-72.101647H30.117647V865.882353h910.215529v-432.368941zM565.609412 289.370353v-72.101647h-481.882353V289.430588h481.882353z m-481.882353 288.225882h803.117176v-72.041411H83.727059V577.596235z m53.549176 144.143059h53.549177v-72.041412h-53.609412V721.739294z m107.098353 0h53.488941v-72.041412h-53.488941V721.739294zM137.216 433.513412h53.549176v-72.101647h-53.609411V433.513412z m107.098353 0h53.488941v-72.101647h-53.488941V433.513412z m-107.098353-288.286118h53.549176v-72.041412h-53.609411v72.041412z m107.098353 0h53.488941v-72.041412h-53.488941v72.041412z m481.882353-144.143059h53.488941v-72.041411h-53.488941v72.041411z m-107.098353 0h53.549176v-72.041411h-53.609411v72.041411z m160.587294 288.286118v-72.101647h160.647529V289.430588h-160.647529z"  horiz-adv-x="1024" />

    
    <glyph glyph-name="shujudaoru" unicode="&#59224;" d="M490.688 404.224l-60.032-51.008L384 392.896 524.032 512l139.968-119.04-46.72-39.744-59.968 51.008v-283.52H1024V64H490.688V404.224z m-354.176-472H1024V-128H0v60.224h68.288V835.84H0V896h1024v-60.224h-68.288v-602.368h-68.224V835.84H136.512V-67.84z"  horiz-adv-x="1024" />

    
    <glyph glyph-name="qiyehuaxiang" unicode="&#59225;" d="M657.468235 207.932235l-75.294117 75.233883h-156.611765L343.943529 207.932235v-112.820706h313.464471v112.820706z m62.644706 25.057883v-200.58353H281.359059v200.58353l112.820706 112.880941h206.848l119.085176-112.880941zM30.599529 533.985882V847.329882h313.404236v-62.644706H93.364706v-250.759529H30.659765z m0-313.46447h62.644706v-250.699294h250.75953v-62.644706H30.599529v313.344z m940.272942 313.46447h-62.644706V784.564706h-250.75953V847.269647h313.404236V533.985882z m0-313.46447v-313.404236h-313.404236v62.644706h250.699294v250.75953h62.644706zM657.468235 565.308235a155.166118 155.166118 0 0 0-156.732235-156.732235A155.166118 155.166118 0 0 0 344.003765 565.308235 155.166118 155.166118 0 0 0 500.736 721.92a155.166118 155.166118 0 0 0 156.732235-156.732235z m-62.704941 0c0 50.115765-43.851294 93.967059-94.027294 93.967059s-94.027294-43.851294-94.027294-93.967059c0-50.176 43.851294-94.027294 94.027294-94.027294s94.027294 43.851294 94.027294 93.967059z"  horiz-adv-x="1024" />

    
    <glyph glyph-name="pingfenka" unicode="&#59226;" d="M239.0016 319.829333l66.082133-39.594666-171.8272-92.5696 409.8048-237.9776 409.873067 237.9776-171.895467 99.1232 66.1504 39.662933 237.9776-138.786133-542.037333-310.6816-542.037333 310.613333L238.933333 319.829333z m852.718933 264.465067l-542.037333-317.303467L1.024 584.2944l542.037333 310.613333 548.6592-310.613333zM543.061333 815.650133l-409.8048-231.424 409.8048-237.909333 409.873067 237.9776-409.873067 231.355733z"  horiz-adv-x="1092" />

    
    <glyph glyph-name="shujutongji" unicode="&#59227;" d="M100.288-59.712H1056V-128H32V896h68.288v-955.712zM236.8 759.488h68.288V76.8H236.8V759.488z m204.8-136.576h68.288V76.8H441.6V622.912zM646.4 486.4h68.288v-409.6H646.4V486.4z m204.8-136.512h68.288V76.8H851.2V349.888z"  horiz-adv-x="1088" />

    
    <glyph glyph-name="tanhao" unicode="&#59228;" d="M512.000341-93.866667a477.184 477.184 0 0 0-477.866666 477.866667c0 264.3968 213.469867 477.866667 477.866666 477.866667s477.866667-213.469867 477.866667-477.866667-213.469867-477.866667-477.866667-477.866667zM512.000341 798.173867A413.354667 413.354667 0 0 1 97.826475 384 413.354667 413.354667 0 0 1 512.000341-30.173867 413.354667 413.354667 0 0 1 926.174208 384 413.354667 413.354667 0 0 1 512.000341 798.173867zM569.344341 635.6992c9.557333-9.557333 15.906133-22.3232 15.906134-38.229333 0-15.9744-6.3488-28.672-15.906134-38.229334a58.7776 58.7776 0 0 0-38.229333-15.9744 52.770133 52.770133 0 0 0-38.229333 15.9744 58.7776 58.7776 0 0 0-15.906134 38.229334c0 15.906133 6.3488 28.672 15.906134 38.229333a52.770133 52.770133 0 0 0 38.229333 15.906133c15.906133 0 25.463467-6.3488 38.229333-15.906133z m0-143.36V97.28H489.677141V492.3392H569.344341z"  horiz-adv-x="1024" />

    
    <glyph glyph-name="sousuo" unicode="&#59229;" d="M465.526154-34.894769C210.944-34.894769 0 176.049231 0 430.473846S211.022769 896 465.526154 896c254.424615 0 465.368615-211.022769 465.368615-465.526154 0-254.424615-211.022769-465.368615-465.447384-465.368615z m0 62.070154a402.589538 402.589538 0 0 1 403.298461 403.298461A402.589538 402.589538 0 0 1 465.526154 834.008615 402.589538 402.589538 0 0 1 61.991385 430.552615a402.589538 402.589538 0 0 1 403.37723-403.37723z m384.708923 62.070153L1024-84.519385l-43.480615-43.480615-173.764923 173.764923 43.480615 43.480615z"  horiz-adv-x="1024" />

    
    <glyph glyph-name="qiyeguanli" unicode="&#59230;" d="M30.117647 352.677647h449.054118v-449.054118H30.117647V352.677647z m64.150588-64.150588v-320.752941H415.021176v320.752941H94.268235zM30.117647 865.882353h449.054118v-449.054118H30.117647V865.882353z m64.150588-64.150588V480.978824H415.021176V801.731765H94.268235zM543.322353 865.882353h449.054118v-449.054118H543.322353V865.882353z m64.150588-64.150588V480.978824h320.752941V801.731765H607.472941zM543.322353 352.677647h449.054118v-449.054118H543.322353V352.677647z m64.150588-64.150588v-320.752941h320.752941v320.752941H607.472941z"  horiz-adv-x="1024" />

    
    <glyph glyph-name="yujingxinhao" unicode="&#59231;" d="M529.946947 54.703158v-112.154947h224.36379v-56.050527H249.532632v56.050527h224.363789V54.703158C255.137684 71.518316 81.273263 251.041684 81.273263 475.351579 81.273263 699.715368 255.137684 879.184842 473.896421 896h56.050526c218.758737-16.815158 392.623158-196.284632 392.623158-420.648421 0-224.309895-173.864421-403.833263-392.623158-420.648421z m-28.025263 56.050526a363.789474 363.789474 0 0 1 364.544 364.597895A363.789474 363.789474 0 0 1 501.921684 839.949474a363.789474 363.789474 0 0 1-364.544-364.544 363.789474 363.789474 0 0 1 364.544-364.544z m0 280.468211c-44.894316 0-84.129684 39.289263-84.129684 84.129684 0 44.894316 39.235368 84.129684 84.129684 84.129684s84.129684-39.235368 84.129684-84.075789c0-44.894316-39.235368-84.183579-84.129684-84.183579z"  horiz-adv-x="1024" />

    
    <glyph glyph-name="youjiantou" unicode="&#59232;" d="M192-128l640 512-640 512z"  horiz-adv-x="1024" />

    
    <glyph glyph-name="xiaoxi" unicode="&#59233;" d="M301.486888 12.988632c62.733474-34.223158 136.892632-57.020632 210.944-57.020632 233.741474 0 427.600842 193.859368 427.600843 427.600842s-193.859368 427.600842-427.600843 427.600842-427.600842-193.859368-427.600842-427.600842c0-79.818105 22.851368-148.210526 57.020632-210.944v-159.63621h159.63621z m-17.084631-57.020632H84.830046V155.486316C50.660783 223.932632 27.863309 303.696842 27.863309 383.568842A484.190316 484.190316 0 0 0 512.430888 868.136421 484.190316 484.190316 0 0 0 997.052362 383.568842 484.190316 484.190316 0 0 0 512.430888-101.052632c-79.764211 0-159.636211 22.797474-228.028631 57.020632z"  horiz-adv-x="1024" />

    
    <glyph glyph-name="xitongshezhi" unicode="&#59234;" d="M198.234353 80.173176L271.119059 102.580706l22.407529-16.865882c28.009412-16.745412 50.416941-33.551059 84.028236-50.356706l28.069647-11.203765 11.203764-72.884706H607.232l16.865882 72.884706 28.009412 11.203765c28.009412 11.203765 56.018824 28.009412 84.028235 50.416941l22.40753 16.805647 72.884706-22.40753 95.171764 168.056471-56.018823 50.477177 5.662118 28.009411c0 16.805647 5.601882 33.611294 5.601882 50.416941 0 16.865882 0 33.611294-5.601882 50.416942l-5.662118 22.407529 56.018823 50.477177-95.171764 168.05647-72.884706-28.009412-22.40753 16.865883c-28.009412 16.745412-50.416941 33.551059-84.028235 50.356706L624.097882 718.908235l-16.805647 72.884706H416.888471l-16.865883-72.884706-28.009412-11.203764c-28.009412-11.203765-56.018824-28.009412-78.426352-44.815059l-28.009412-22.40753-67.222588 22.40753-95.292236-168.056471 56.018824-50.477176-5.541647-28.009412c0-16.805647-5.662118-33.611294-5.662118-50.416941 0-16.865882 0-33.611294 5.662118-50.416941l5.601882-28.009412-56.018823-50.477177 95.171764-156.852706zM97.460706 315.512471c0 16.805647-5.601882 33.611294-5.601882 56.018823s0 39.213176 5.601882 56.018824L30.177882 489.231059l140.107294 240.941176 84.028236-28.069647c28.009412 22.407529 61.620706 39.273412 95.232 56.018824L371.952941 847.811765h280.214588l22.40753-89.630118c33.611294-16.865882 67.222588-33.671529 95.232-56.018823l84.028235 28.009411 140.107294-240.941176-67.222588-61.680941c0-16.805647 5.601882-33.611294 5.601882-56.018824s0-39.213176-5.601882-56.018823L993.942588 253.891765l-140.107294-240.941177-84.028235 28.009412c-28.009412-22.407529-61.620706-39.273412-95.232-56.018824l-22.40753-89.690352H371.952941l-22.407529 89.630117c-33.611294 16.865882-67.222588 33.671529-95.232 56.018824l-84.028236-27.949177-140.107294 240.941177 67.222589 61.620706zM512.060235 231.424a138.721882 138.721882 0 0 1 140.107294 140.107294A138.721882 138.721882 0 0 1 512.060235 511.638588a138.721882 138.721882 0 0 1-140.107294-140.107294A138.721882 138.721882 0 0 1 512.060235 231.424z m0-56.018824c-106.435765 0-196.126118 89.690353-196.126117 196.126118C315.934118 477.967059 405.624471 567.657412 512.060235 567.657412c106.435765 0 196.126118-89.690353 196.126118-196.126118 0-106.435765-89.690353-196.126118-196.126118-196.126118z"  horiz-adv-x="1024" />

    
    <glyph glyph-name="shujuzhongxin" unicode="&#59235;" d="M537.178353-100.412235h-22.648471c-266.480941 0-481.882353 215.461647-481.882353 481.882353 0 266.480941 215.401412 481.882353 481.882353 481.882353h28.310589c255.156706-16.986353 453.571765-226.725647 453.571764-481.882353 0-232.387765-164.442353-425.140706-385.505882-470.497883-22.708706-5.722353-51.019294-11.384471-73.728-11.38447z m-45.357177 56.741647v192.752941l-79.329882 107.700706 164.382118 164.442353L656.263529 341.835294h152.997647l102.098824-102.098823v-11.324236c16.986353 51.019294 28.310588 102.038588 28.310588 158.72 0 221.123765-170.044235 402.552471-385.505882 425.261177L435.139765 693.248l79.390117-79.390118V466.522353L384.120471 336.112941 134.686118 574.223059a438.512941 438.512941 0 0 1-45.357177-192.752941c0-226.725647 175.706353-413.816471 402.492235-425.140706zM293.406118 744.327529c-51.019294-34.032941-90.714353-68.065882-124.687059-119.085176L384.060235 409.901176 457.788235 483.508706V585.607529L355.749647 687.585882l17.046588 16.986353 96.376471 96.376471a401.167059 401.167059 0 0 1-175.766588-56.681412z m255.09647-572.596705V-43.670588a478.087529 478.087529 0 0 1 181.428706 56.621176c51.019294 28.370824 90.714353 68.065882 124.687059 113.423059v90.714353l-68.005647 68.065882h-152.997647l-56.741647 56.621177-85.052236-84.992 56.681412-85.052235z"  horiz-adv-x="1024" />

    
    <glyph glyph-name="zhibiaoguanli" unicode="&#59236;" d="M441.472 350.208h-136.32v-204.48h136.32V350.208z m68.16 0v-272.64h-272.64V418.368h272.64v-68.16z m272.64 272.64H305.152v-68.16h477.12V622.848z m68.16 0v-136.32H236.992V691.008h613.44v-68.16zM32.512 895.488h1022.4v-1022.4H32.512V895.488z m68.16-68.16v-886.08h886.08V827.328H100.672z m477.12-545.28h272.64v-68.16h-272.64V282.048z m0 136.32h272.64v-68.16h-272.64V418.368z m0-272.64h272.64v-68.16h-272.64v68.16z"  horiz-adv-x="1088" />

    
    <glyph glyph-name="fengxianshibie" unicode="&#59237;" d="M59.331765 550.490353l50.959059-28.310588c-16.986353-45.296941-22.648471-90.654118-22.648471-135.951059 0-45.296941 5.662118-90.593882 22.648471-135.951059l-50.959059-28.310588c-16.986353 51.019294-28.310588 107.640471-28.310589 164.261647s11.324235 113.242353 28.310589 164.261647z m84.931764 147.275294C217.931294 782.697412 314.187294 845.040941 427.489882 867.629176v-56.621176a488.207059 488.207059 0 0 1-237.929411-141.552941l-45.296942 28.310588zM965.571765 221.967059l-50.959059 28.310588c11.324235 39.695059 22.648471 90.654118 22.64847 135.951059 0 45.296941-5.662118 90.654118-22.64847 135.951059l50.959059 28.310588c16.986353-50.959059 28.310588-107.580235 28.310588-164.261647 0-56.621176-11.324235-113.242353-28.310588-164.261647z m-84.931765-147.275294c-73.667765-84.931765-169.984-147.215059-283.226353-169.86353v56.621177c90.593882 16.986353 175.585882 67.945412 237.929412 141.552941l45.236706-28.310588z m-736.376471 0l45.357177 28.310588c62.283294-67.945412 141.552941-118.904471 237.869176-141.552941v-56.621177c-113.242353 22.648471-215.220706 84.931765-283.226353 169.86353zM880.64 697.825882l-45.296941-28.310588c-62.283294 67.945412-141.552941 118.904471-237.929412 141.552941V867.689412c113.302588-22.588235 215.280941-84.931765 283.226353-169.86353z m-368.158118 84.931765c-33.972706 0-56.621176 22.708706-56.621176 56.621177 0 34.032941 22.648471 56.681412 56.621176 56.681411 34.032941 0 56.621176-22.648471 56.621177-56.621176s-22.588235-56.621176-56.621177-56.621177z m0-906.24c-33.972706 0-56.621176 22.708706-56.621176 56.621177 0 34.032941 22.648471 56.681412 56.621176 56.681411 34.032941 0 56.621176-22.648471 56.621177-56.621176s-22.588235-56.621176-56.621177-56.621177z m-396.468706 226.605177c-33.972706 0-56.621176 22.648471-56.621176 56.621176s22.648471 56.621176 56.621176 56.621176 56.621176-22.648471 56.621177-56.621176-22.648471-56.621176-56.621177-56.621176z m792.997648 0c-34.032941 0-56.621176 22.648471-56.621177 56.621176s22.588235 56.621176 56.621177 56.621176c33.972706 0 56.621176-22.648471 56.621176-56.621176s-22.648471-56.621176-56.621176-56.621176zM115.952941 556.152471c-33.972706 0-56.621176 22.648471-56.621176 56.621176 0 34.032941 22.648471 56.621176 56.621176 56.621177s56.621176-22.588235 56.621177-56.621177c0-33.972706-22.648471-56.621176-56.621177-56.621176z m792.997647 0c-34.032941 0-56.621176 22.648471-56.621176 56.621176 0 34.032941 22.588235 56.621176 56.621176 56.621177 33.972706 0 56.621176-22.588235 56.621177-56.621177 0-33.972706-22.648471-56.621176-56.621177-56.621176zM563.440941 476.882824h249.193412l-305.874824-305.874824V306.959059H257.566118l305.874823 305.814588v-135.890823z m-56.621176-56.621177v56.621177l-113.302589-113.242353h169.86353v-56.681412l113.302588 113.242353h-169.863529z"  horiz-adv-x="1024" />

    
    <glyph glyph-name="yujingxinhaoqingdan" unicode="&#59238;" d="M1.204706 864.677647h963.764706v-642.529882l-321.174588-321.295059H1.204706v963.764706z m64.271059-64.271059v-835.282823h552.598588l282.684235 282.684235V800.406588H65.475765z m642.529882-257.024H258.228706V607.653647h449.776941v-64.271059z m0-192.752941H258.228706V414.900706h449.776941v-64.271059z m-128.481882-192.752941H258.228706v64.210823h321.295059v-64.210823z"  horiz-adv-x="1024" />

    
    <glyph glyph-name="fengxianyujingkanban" unicode="&#59239;" d="M1056 896v-1024H32V896h1024z m-960-64v-896h896V832h-896z m128 0h64v-896h-64V832z m256 0h64v-896h-64V832z m256 0h64v-896h-64V832z"  horiz-adv-x="1088" />

    
    <glyph glyph-name="chakangengduo" unicode="&#59240;" d="M1632.475429 407.405714L1077.686857 844.068571c-12.507429 9.947429-29.257143 15.36-47.104 15.36-17.92 0-34.742857-5.485714-47.542857-15.433142-24.137143-19.017143-26.477714-48.713143-5.632-69.485715l451.218286-355.328H128.146286c-36.864 0-66.779429-23.625143-66.779429-52.662857 0-29.037714 29.988571-52.662857 66.706286-52.662857h1300.48l-462.043429-363.666286c-13.897143-21.723429-9.581714-46.811429 11.190857-63.122285 12.361143-9.728 29.184-15.067429 47.250286-15.067429 19.894857 0 38.912 6.290286 53.467429 17.700571l37.083428 29.037715 101.522286 80.018285 19.163429 14.774858L1632.402286 325.485714a46.299429 46.299429 0 0 1 18.797714 39.936l-0.073143 1.024 0.073143 1.024a46.153143 46.153143 0 0 1-18.724571 39.936z"  horiz-adv-x="1682" />

    
    <glyph glyph-name="shujuku" unicode="&#59241;" d="M1060.141176 759.446588C1060.141176 834.56 821.609412 896 530.070588 896 238.531765 896 0 834.56 0 759.446588V577.355294c0-15.902118 11.806118-31.864471 29.455059-45.477647-20.600471-13.673412-29.455059-29.635765-29.455059-45.537882v-182.091294c0-15.902118 11.806118-31.864471 29.455059-45.537883-20.600471-13.613176-29.455059-29.515294-29.455059-45.477647v-182.091294c0-75.113412 238.531765-136.553412 530.070588-136.553412 291.538824 0 530.070588 61.44 530.070588 136.553412v182.091294c0 15.902118-11.806118 31.864471-29.455058 45.477647 20.600471 13.673412 29.455059 29.635765 29.455058 45.537883V486.4c0 15.902118-11.806118 31.864471-29.455058 45.537882 20.600471 13.613176 29.455059 29.515294 29.455058 45.477647V759.446588z m-58.910117-666.804706v-61.44c0-50.115765-212.028235-91.075765-471.160471-91.075764S58.910118-18.974118 58.910118 31.141647V149.504c88.304941-43.248941 265.035294-75.113412 471.16047-75.113412 206.125176 0 382.855529 29.575529 471.160471 75.113412v-56.922353z m-471.160471 29.515294c-259.132235 0-471.160471 40.96-471.16047 91.075765 0 6.806588 5.903059 15.902118 14.697411 22.768941 91.316706-40.96 262.083765-68.306824 456.463059-68.306823 194.379294 0 365.146353 27.346824 456.463059 68.306823 8.794353-6.866824 14.697412-13.673412 14.697412-22.768941 0-50.055529-212.028235-91.075765-471.160471-91.075765z m471.160471 243.531295v-61.44c0-50.055529-212.028235-91.015529-471.160471-91.01553S58.910118 254.192941 58.910118 304.248471V422.610824c88.304941-43.248941 265.035294-75.113412 471.16047-75.113412 206.125176 0 382.855529 29.575529 471.160471 75.113412v-56.922353zM530.070588 395.324235c-259.132235 0-471.160471 40.96-471.16047 90.955294 0 6.866824 5.903059 15.962353 14.697411 22.829177 91.316706-40.96 262.083765-68.306824 456.463059-68.306824 194.379294 0 365.146353 27.346824 456.463059 68.306824 8.794353-6.866824 14.697412-13.673412 14.697412-22.768941 0-50.055529-212.028235-91.015529-471.160471-91.01553z m471.160471 243.471059v-61.44c0-50.055529-212.028235-91.015529-471.160471-91.015529S58.910118 527.299765 58.910118 577.355294V695.717647c88.304941-43.248941 265.035294-75.113412 471.16047-75.113412 206.125176 0 382.855529 29.575529 471.160471 75.113412v-56.922353zM530.070588 668.431059c-259.132235 0-471.160471 40.96-471.16047 91.015529C58.910118 809.502118 270.938353 850.462118 530.070588 850.462118s471.160471-40.96 471.160471-91.01553c0-50.055529-212.028235-91.015529-471.160471-91.015529z"  horiz-adv-x="1084" />

    
    <glyph glyph-name="yonghu" unicode="&#59242;" d="M830.042353 92.461176a360.990118 360.990118 0 0 1-77.522824 115.049412 360.508235 360.508235 0 0 1-159.623529 93.123765 297.381647 297.381647 0 0 1 115.109647 71.800471 297.080471 297.080471 0 0 1 87.461647 211.245176c0 79.691294-31.021176 154.804706-87.461647 211.184941A296.357647 296.357647 0 0 1 497.061647 882.386824a295.875765 295.875765 0 0 1-210.883765-87.521883 297.080471 297.080471 0 0 1-87.461647-211.184941c0-79.751529 31.021176-154.804706 87.461647-211.245176 32.888471-32.948706 72.282353-57.223529 115.109647-71.800471a360.508235 360.508235 0 0 1-159.683764-93.184 360.990118 360.990118 0 0 1-105.833412-255.879529 38.972235 38.972235 0 1 1 78.004706 0c0 75.836235 29.515294 147.094588 83.004235 200.704a281.359059 281.359059 0 0 0 200.402824 83.124705c75.715765 0 146.913882-29.515294 200.402823-83.124705a282.081882 282.081882 0 0 0 83.004235-200.704 38.972235 38.972235 0 1 1 78.004706 0 364.303059 364.303059 0 0 1-28.611764 140.950588zM276.540235 583.68a220.762353 220.762353 0 0 0 220.400941 220.641882 220.702118 220.702118 0 0 0 0-441.283764 220.762353 220.762353 0 0 0-220.400941 220.641882z"  horiz-adv-x="1024" />

    
    <glyph glyph-name="mima" unicode="&#59243;" d="M828.656941 617.652706a369.001412 369.001412 0 0 1-74.390588 116.254118 345.208471 345.208471 0 0 1-110.230588 78.848 328.583529 328.583529 0 0 1-269.914353-0.120471 344.485647 344.485647 0 0 1-110.230588-78.727529 367.435294 367.435294 0 0 1-74.390589-116.254118A377.675294 377.675294 0 0 1 162.153412 475.557647v-482.002823c0-39.333647 30.418824-71.318588 67.885176-71.318589h557.899294c37.466353 0 67.885176 31.924706 67.644236 71.318589V418.996706l0.240941 19.57647V475.557647a375.085176 375.085176 0 0 1-27.105883 142.095059zM401.347765 748.122353h0.180706l1.325176 0.542118a254.012235 254.012235 0 0 0 106.194824 22.949647c36.743529 0 72.583529-7.830588 106.255058-22.768942a282.021647 282.021647 0 0 0 88.064-62.945882c25.901176-27.346824 46.08-59.030588 60.29553-94.268235 14.878118-36.743529 22.287059-75.655529 22.287059-116.073412v-30.358588H232.146824v30.479059c0 39.996235 7.469176 78.908235 22.287058 115.952941A297.863529 297.863529 0 0 0 314.789647 685.778824a274.552471 274.552471 0 0 0 86.618353 62.283294z m384.903529-372.736v-381.711059c0-0.602353 0-1.144471-0.180706-1.445647H232.327529a4.758588 4.758588 0 0 0-0.240941 1.445647V375.386353h554.164706zM476.822588 217.931294v-91.738353a32.527059 32.527059 0 1 1 64.873412 0v91.979294a60.175059 60.175059 0 1 1-92.641882 50.416941c0.120471-20.419765 10.661647-39.634824 27.708235-50.597647z"  horiz-adv-x="1024" />

    
    <glyph glyph-name="fengxiangailan" unicode="&#59244;" d="M904.677053 869.052632H119.322947C68.392421 869.052632 26.947368 814.942316 26.947368 748.544v-729.088C26.947368-46.942316 68.446316-101.052632 119.322947-101.052632h785.354106c50.930526 0 92.375579 54.110316 92.375579 120.508632V748.544C997.052632 815.104 955.553684 869.052632 904.677053 869.052632z m-10.24-836.176843H129.562947V735.124211h764.981895v-702.248422h-0.107789zM296.852211 529.246316h205.177263V663.174737h-307.738948v-348.16H296.96V529.300211h-0.107789z m554.145684-80.303158h-102.669474v-214.12379H543.258947v-133.982315h307.792842v348.16z"  horiz-adv-x="1024" />

    
    <glyph glyph-name="qiyefengxian" unicode="&#59245;" d="M790.743579-128H78.794105V896h711.949474v-1024zM167.936-39.989895h533.611789V807.989895h-533.557894v-847.97979zM559.966316 609.118316H320.350316h239.562105z m-239.562105 46.08h239.562105V567.242105H320.350316V655.198316z m239.562105-273.246316H320.350316h239.562105z m-239.562105 46.026105h239.562105v-87.95621H320.350316V427.978105z m239.562105-266.671158H320.350316h239.562105z m-239.562105 46.08h239.562105v-88.010105H320.350316v88.010105z m605.453473 311.080421h-221.615158 221.615158z m-221.615158 46.08h221.615158v-88.010105h-221.615158V564.547368z m221.615158-650.617263h-221.615158 221.615158z m-221.615158 46.08h221.615158V-128h-221.615158v88.010105z m248.454737 604.645053v-692.439579V564.655158z m-46.888421 0h89.249684v-692.439579h-89.195789V564.655158z"  horiz-adv-x="1024" />

    
    <glyph glyph-name="hangyefengxian" unicode="&#59246;" d="M540.043822 44.031235a59.107293 59.107293 0 0 0-37.830943 12.970609 45.0558 45.0558 0 0 0-15.473709 33.450518V345.085897l-254.292203 129.023427a48.469118 48.469118 0 0 0-24.689668 27.989209 41.130484 41.130484 0 0 0 5.40442 35.498509c9.671068 14.506602 27.306545 23.324341 46.364239 23.210563 8.931516 0 17.749254-2.161768 25.486109-6.143972l255.031755-129.706091L795.075577 554.663633c7.964409 4.095982 17.066591 6.200861 26.28255 6.143972h13.937716c13.76705-3.413318 25.42922-11.548393 32.426523-22.5279 14.108382-22.300345 5.575086-50.46022-19.342137-63.487717l-254.974866-129.706091v-253.950871a45.909129 45.909129 0 0 0-16.27015-33.450518 55.580197 55.580197 0 0 0-36.29495-12.970609l-0.796441-0.682664z m0-172.031235c-9.215959 0-18.204364 2.10488-26.28255 6.143973L54.669979 110.932271C38.513607 119.238012 28.444318 134.597944 28.444318 151.209426V616.10336c-0.170666 16.839036 9.841734 32.426523 26.28255 40.959817L513.818161 889.851476c7.964409 4.095982 17.066591 6.200861 26.225661 6.143973 9.443514 0 18.77325-2.10488 27.078991-6.143973L1025.360776 657.063177c16.839036-8.248852 27.249657-23.950116 27.078991-40.959817v-464.893934c0.170666-16.66837-9.898623-32.085191-26.28255-40.277155l-459.091293-232.788298c-8.248852-3.982205-17.578589-6.143973-27.022102-6.143973z m0 100.351554l405.729752 204.79909v409.598179l-405.729752 204.79909-404.933311-204.79909v-409.598179l404.933311-204.79909z"  horiz-adv-x="1080" />

    
    <glyph glyph-name="quyufengxian" unicode="&#59247;" d="M572.175059 3.915294c271.480471 188.175059 407.190588 354.605176 407.190588 499.230118C979.425882 720.112941 797.093647 896 572.235294 896S164.924235 720.112941 164.924235 503.145412c0-144.624941 135.710118-311.055059 407.190589-499.230118zM256.843294 503.145412c0 168.538353 141.372235 304.911059 315.331765 304.911059 173.959529 0 315.271529-136.372706 315.271529-304.911059 0-100.291765-102.279529-233.110588-315.271529-389.541647-213.052235 156.370824-315.331765 289.249882-315.331765 389.541647zM572.175059 324.367059c101.556706 0 183.898353 78.727529 183.898353 175.887059 0 97.099294-82.341647 175.887059-183.898353 175.887058-101.616941 0-183.958588-78.787765-183.958588-175.887058 0-97.159529 82.341647-175.887059 183.958588-175.887059z m0 87.943529c-50.778353 0-91.979294 39.333647-91.979294 87.94353 0 48.549647 41.200941 87.943529 91.979294 87.943529 50.778353 0 91.919059-39.393882 91.919059-87.943529 0-48.609882-41.140706-87.943529-91.919059-87.94353z m430.140235-452.367059H141.974588l43.971765 213.594353h175.405176v87.94353H110.290824L30.117647-128h1083.934118l-80.112941 389.481412h-251.060706v-87.94353h175.465411l43.91153-213.594353z"  horiz-adv-x="1144" />

    
    <glyph glyph-name="shouqi" unicode="&#59248;" d="M838.7584 243.0464V854.1696h129.6896v-611.1232h-129.6896zM514.5088 120.832L254.976-123.648h518.9632L514.5088 120.832zM60.5696 243.0464V854.1696h129.6384v-611.1232H60.5696z m389.0176 0V854.1696h129.6896v-611.1232H449.536z"  horiz-adv-x="1024" />

    
    <glyph glyph-name="zhankai" unicode="&#59249;" d="M190.208 487.4752v-611.1232H60.5696V487.4752h129.6384zM514.56 609.6896L773.9904 854.1696H254.976l259.4816-244.48z m453.9392-122.2144v-611.1232h-129.6896V487.4752h129.6896z m-389.0688 0v-611.1232H449.6896V487.4752h129.6896z"  horiz-adv-x="1024" />

    
    <glyph glyph-name="fanhui" unicode="&#59250;" d="M133.802667 347.477333l415.3344-401.954133L511.658667-128 20.002133 363.9296 0 384l20.002133 20.0704L511.658667 896l37.4784-73.591467L133.802667 420.522667H1228.8v-73.045334z"  horiz-adv-x="1228" />

    
    <glyph glyph-name="zanwushuju" unicode="&#59251;" d="M1253.82477 469.68495l-131.450315 234.463125V705.52314a20.274887 20.274887 0 0 1-8.923291 9.625451L642.096608 891.859008 640.721543 892.531912l-1.375064 0.70216A19.484957 19.484957 0 0 1 629.018867 895.984201a17.963609 17.963609 0 0 1-10.327613-2.750129L617.31619 892.531912l-1.375065-0.672904L145.961634 714.475688c-4.827354-2.750129-9.654708-6.875322-12.375581-11.702677L2.135738 466.934821a25.775145 25.775145 0 0 1 11.702677-33.001548l106.669897-52.954612 11.000516-5.500258v-273.667092c0-9.596195 4.827354-17.846582 13.750645-22.673935l470.681652-200.086513c4.125193-2.047968 8.250387-2.750129 12.375581-2.750129a26.97467 26.97467 0 0 1 12.404837 2.750129l467.902267 200.788673h1.375064a23.756433 23.756433 0 0 1 15.82787 22.673936v275.0129l10.327612 5.529515 103.217608 52.954611 4.125193 2.047969h4.125194a24.429337 24.429337 0 0 1 6.202419 31.597226z m-64.686545 16.500774l9.654708-17.875838-420.447913-210.384869-6.202419-2.779386-3.452289 5.529515-101.140383 184.258643-3.452289 6.173162 6.202418 3.45229 417.668528 210.384868 2.779385-4.798098 98.390254-173.960287z m-160.32667 213.837158l18.578-6.173162-382.589755-193.913351-9.654708-4.798097V828.606041l6.904579-2.047968 366.761884-126.535191zM597.363126 826.528816l16.500774 5.500258V499.263465H605.613513l-2.047968 1.404321L216.148437 695.868432l13.077741 4.827354 368.136948 125.803773zM165.914697 658.770947l6.202419 11.702677 424.54385-215.24148 6.202418-3.423032-3.452289-6.202419-101.813287-183.556482-3.452289-5.529515-6.202419 2.750129L62.024186 472.435079l7.548226 13.750645 96.342285 172.585223z m28.905611-548.679992l-12.37558 4.798098V363.804984l0.672904-0.702161 310.325726-154.709384a28.788584 28.788584 0 0 1 10.327612-2.750129 22.586166 22.586166 0 0 1 18.577999 10.327612l78.466447 138.20861 13.048484 22.673936V-62.465011l-17.202934 6.875322L194.849565 110.090955z m881.474858 17.846582v-13.048484l-11.702677-4.798098-401.869914-165.7099-7.548226-3.45229v435.924703l13.048484-22.673936 79.139351-138.910771a19.63124 19.63124 0 0 1 17.202934-9.625451 19.4557 19.4557 0 0 1 10.327612 2.750129l302.07534 151.257094v-231.712996h-0.672904z"  horiz-adv-x="1258" />

    
    <glyph glyph-name="fengxianxiangying" unicode="&#59252;" d="M676.736 475.456H800v-304.768H368.64V292.48H245.248V597.312h431.424V475.52zM697.6 384v-113.792H458.688v-56.896h298.624V384H697.6z m230.4-328.32c-94.528-112.576-230.4-183.68-384-183.68s-295.36 71.104-384 183.68l53.12 29.632c82.752-94.784 200.96-154.048 330.88-154.048s254.08 59.264 330.88 154.048l53.12-29.632z m97.536 157.632l-54.848 29.952c12.16 47.936 24.32 95.808 24.32 143.744 0 221.568-158.464 407.168-365.696 449.088V896c243.84-41.92 426.688-257.472 426.688-508.992 0-59.904-12.16-119.808-30.464-173.696z m-963.072 0C44.16 267.2 32 327.104 32 387.008 32 638.528 214.848 854.08 458.688 896v-59.904C251.456 794.24 92.928 608.64 92.928 387.008c0-47.936 6.144-95.808 24.384-143.744l-54.848-29.952zM522.624 768c-38.4 0-64 25.6-64 64s25.6 64 64 64 64-25.6 64-64-25.6-64-64-64z m-384-682.688c-38.4 0-64 25.6-64 64s25.6 64 64 64 64-25.6 64-64-25.6-64-64-64z m810.688 0c-38.4 0-64 25.6-64 64s25.6 64 64 64 64-25.6 64-64-25.6-64-64-64zM330.688 512v-170.688h298.624V512H330.688z"  horiz-adv-x="1088" />

    
    <glyph glyph-name="shouye" unicode="&#59253;" d="M896 256h-42.667v89.6l-320 320-320-320v-260.267h341.334v-42.666h-384V320H128l405.333 405.333L938.667 320H896v-64z m0-128v-128H768V128h128z m-170.667 0v-128h-128V128h128z m85.334 170.667v-128h-128v128h128zM768 256h-42.667v-42.667H768V256z m-85.333-170.667H640v-42.666h42.667v42.666z m170.666 0h-42.666v-42.666h42.666v42.666z"  horiz-adv-x="1024" />

    
    <glyph glyph-name="shujuzhutiku" unicode="&#59254;" d="M533.333 42.667c179.2 0 320 145.066 320 320s-145.066 320-320 320-320-145.067-320-320c0-93.867 34.134-132.267 115.2-157.867 8.534-4.267 12.8-4.267 21.334-8.533 4.266 0 21.333-4.267 21.333-8.534 51.2-17.066 76.8-25.6 98.133-51.2C486.4 119.467 499.2 98.133 512 76.8c4.267-8.533 8.533-17.067 8.533-21.333 8.534 0 8.534-8.534 12.8-12.8z m0-42.667c-59.733 0-21.333 42.667-89.6 110.933-64 64-273.066 25.6-273.066 251.734 0 200.533 162.133 362.666 362.666 362.666S896 563.2 896 362.667 733.867 0 533.333 0z m72.534 106.667c-42.667 0-76.8 34.133-76.8 76.8S563.2 256 605.867 256s76.8-34.133 76.8-72.533-34.134-76.8-76.8-76.8z m0 42.666c17.066 0 34.133 12.8 34.133 34.134s-12.8 29.866-34.133 29.866-34.134-12.8-34.134-29.866 17.067-34.134 34.134-34.134zM640 512c-25.6 0-42.667 17.067-42.667 42.667S614.4 597.333 640 597.333s42.667-17.066 42.667-42.666S665.6 512 640 512z m-119.467 34.133c-25.6 0-42.666 17.067-42.666 42.667s17.066 42.667 42.666 42.667S563.2 614.4 563.2 588.8s-17.067-42.667-42.667-42.667z m204.8-119.466c-25.6 0-42.666 17.066-42.666 42.666S699.733 512 725.333 512 768 494.933 768 469.333s-17.067-42.666-42.667-42.666z m-320 85.333c-25.6 0-42.666 17.067-42.666 42.667s17.066 42.666 42.666 42.666S448 580.267 448 554.667 430.933 512 405.333 512z"  horiz-adv-x="1024" />

    


  </font>
</defs>
</svg>
